<svg width="18" height="17" viewBox="0 0 18 17" fill="none" xmlns="http://www.w3.org/2000/svg">
<path d="M16.2581 0.870972H1.74194C0.783871 0.870972 0 1.65484 0 2.61291C0 3.57097 0.541936 4 1.5 4H9H16.2581C17.2161 4 18 3.57097 18 2.61291C18 1.65484 17.2161 0.870972 16.2581 0.870972ZM16.2581 7.25807H1.74194C0.783871 7.25807 0 8.04194 0 9C0 9.95807 0.783871 10.5 1.74194 10.5H9H16.2581C17.2161 10.5 18 9.95807 18 9C18 8.04194 17.2161 7.25807 16.2581 7.25807ZM16.2581 13.6452H1.74194C0.783871 13.6452 0 14.429 0 15.3871C0 16.3452 0.783871 17 1.74194 17H9H16.2581C17.2161 17 18 16.3452 18 15.3871C18 14.429 17.2161 13.6452 16.2581 13.6452Z" fill="#59585A"/>
</svg>
