<svg width="24" height="16" viewBox="0 0 24 16" fill="none" xmlns="http://www.w3.org/2000/svg">
<path d="M12.0051 10.3118L3.02634 1.33351C2.77971 1.08629 2.44995 0.950289 2.09834 0.950289C1.74654 0.950289 1.41698 1.08629 1.16995 1.33351L0.38361 2.12024C0.136195 2.36707 0 2.69702 0 3.04863C0 3.40024 0.136195 3.7298 0.38361 3.97682L11.0736 14.667C11.3214 14.915 11.6525 15.0508 12.0045 15.0498C12.358 15.0508 12.6888 14.9152 12.9368 14.667L23.6164 3.98678C23.8638 3.73975 24 3.41019 24 3.05839C24 2.70678 23.8638 2.37722 23.6164 2.13L22.83 1.34346C22.3182 0.831655 21.4851 0.831655 20.9735 1.34346L12.0051 10.3118Z" fill="#3070B6"/>
</svg>
