<svg width="9" height="10" viewBox="0 0 9 10" fill="none" xmlns="http://www.w3.org/2000/svg">
<path d="M0.188822 0.798443C0.248525 0.738025 0.319449 0.69009 0.397533 0.657383C0.475617 0.624676 0.559326 0.607841 0.643866 0.607841C0.728405 0.607841 0.812114 0.624676 0.890198 0.657383C0.968282 0.69009 1.03921 0.738025 1.09891 0.798443L4.50017 4.23306L7.90143 0.798443C7.96118 0.738123 8.03213 0.690274 8.1102 0.657629C8.18828 0.624983 8.27196 0.608181 8.35647 0.608181C8.44098 0.608181 8.52466 0.624983 8.60274 0.657629C8.68082 0.690274 8.75176 0.738123 8.81151 0.798443C8.87127 0.858763 8.91867 0.930374 8.95101 1.00919C8.98336 1.088 9 1.17247 9 1.25778C9 1.34308 8.98336 1.42755 8.95101 1.50636C8.91867 1.58518 8.87127 1.65679 8.81151 1.71711L5.40897 5.15042L8.81151 8.58374C8.87127 8.64406 8.91867 8.71567 8.95101 8.79448C8.98336 8.87329 9 8.95777 9 9.04307C9 9.12838 8.98336 9.21285 8.95101 9.29166C8.91867 9.37047 8.87127 9.44208 8.81151 9.5024C8.75176 9.56273 8.68082 9.61057 8.60274 9.64322C8.52466 9.67586 8.44098 9.69267 8.35647 9.69267C8.27196 9.69267 8.18828 9.67586 8.1102 9.64322C8.03213 9.61057 7.96118 9.56273 7.90143 9.5024L4.50017 6.06779L1.09891 9.5024C1.03915 9.56273 0.96821 9.61057 0.890134 9.64322C0.812057 9.67586 0.728375 9.69267 0.643866 9.69267C0.559356 9.69267 0.475674 9.67586 0.397598 9.64322C0.319521 9.61057 0.248579 9.56273 0.188822 9.5024C0.129065 9.44208 0.0816626 9.37047 0.0493223 9.29166C0.0169819 9.21285 0.000336506 9.12838 0.000336506 9.04307C0.000336506 8.95777 0.0169819 8.87329 0.0493223 8.79448C0.0816626 8.71567 0.129065 8.64406 0.188822 8.58374L3.59137 5.15042L0.188822 1.71711C0.128968 1.65684 0.0814802 1.58525 0.0490789 1.50643C0.0166777 1.42761 0 1.34311 0 1.25778C0 1.17244 0.0166777 1.08794 0.0490789 1.00912C0.0814802 0.930302 0.128968 0.858709 0.188822 0.798443Z" fill="#59585A"/>
</svg>
