<svg width="40" height="40" viewBox="0 0 40 40" fill="none" xmlns="http://www.w3.org/2000/svg">
<path d="M5 26.25C5 25.9185 5.1317 25.6005 5.36612 25.3661C5.60054 25.1317 5.91848 25 6.25 25H13.75C14.0815 25 14.3995 25.1317 14.6339 25.3661C14.8683 25.6005 15 25.9185 15 26.25C15 26.5815 14.8683 26.8995 14.6339 27.1339C14.3995 27.3683 14.0815 27.5 13.75 27.5H6.25C5.91848 27.5 5.60054 27.3683 5.36612 27.1339C5.1317 26.8995 5 26.5815 5 26.25ZM5 18.75C5 18.4185 5.1317 18.1005 5.36612 17.8661C5.60054 17.6317 5.91848 17.5 6.25 17.5H23.75C24.0815 17.5 24.3995 17.6317 24.6339 17.8661C24.8683 18.1005 25 18.4185 25 18.75C25 19.0815 24.8683 19.3995 24.6339 19.6339C24.3995 19.8683 24.0815 20 23.75 20H6.25C5.91848 20 5.60054 19.8683 5.36612 19.6339C5.1317 19.3995 5 19.0815 5 18.75ZM5 11.25C5 10.9185 5.1317 10.6005 5.36612 10.3661C5.60054 10.1317 5.91848 10 6.25 10H33.75C34.0815 10 34.3995 10.1317 34.6339 10.3661C34.8683 10.6005 35 10.9185 35 11.25C35 11.5815 34.8683 11.8995 34.6339 12.1339C34.3995 12.3683 34.0815 12.5 33.75 12.5H6.25C5.91848 12.5 5.60054 12.3683 5.36612 12.1339C5.1317 11.8995 5 11.5815 5 11.25Z" fill="#3070B6"/>
</svg>
