<svg width="20" height="20" viewBox="0 0 20 20" fill="none" xmlns="http://www.w3.org/2000/svg">
<path d="M19.5264 17.1063L14.9282 12.5079C15.7368 11.2226 16.1649 9.73473 16.1629 8.21633C16.1629 3.7529 12.5446 0.13504 8.08129 0.13504C3.61803 0.13504 0 3.7529 0 8.21633C0 12.6799 3.61786 16.2975 8.08129 16.2975C9.73211 16.2996 11.3436 15.7937 12.6971 14.8486L17.2405 19.3923C17.3905 19.5424 17.5687 19.6615 17.7649 19.7425C17.961 19.8236 18.1712 19.8652 18.3834 19.8648C18.5957 19.8652 18.806 19.8236 19.0022 19.7426C19.1985 19.6615 19.3767 19.5425 19.5269 19.3923C19.8299 19.0891 20 18.6779 20 18.2492C19.9999 17.8205 19.8295 17.4094 19.5264 17.1063ZM8.08129 13.6792C5.06453 13.6792 2.61872 11.2336 2.61872 8.21667C2.61872 5.19974 5.06453 2.75393 8.08129 2.75393C11.0982 2.75393 13.5439 5.19974 13.5439 8.21667C13.5439 11.2336 11.0982 13.6792 8.08129 13.6792Z" fill="#59585A"/>
</svg>
