<svg width="17" height="19" viewBox="0 0 17 19" fill="none" xmlns="http://www.w3.org/2000/svg">
<path d="M13.2203 12.6076C12.3579 12.6076 11.5809 12.98 11.0416 13.5725L6.19105 10.5683C6.32422 10.2279 6.39249 9.86552 6.39235 9.49998C6.39252 9.13444 6.32424 8.7721 6.19105 8.43169L11.0416 5.42735C11.5809 6.0198 12.3579 6.39239 13.2203 6.39239C14.845 6.39239 16.1666 5.07073 16.1666 3.44612C16.1666 1.82152 14.845 0.5 13.2203 0.5C11.5958 0.5 10.2741 1.82166 10.2741 3.44626C10.2741 3.81178 10.3423 4.17409 10.4754 4.51452L5.62496 7.51876C5.08567 6.9263 4.30868 6.55372 3.44626 6.55372C1.82166 6.55372 0.5 7.87552 0.5 9.49998C0.5 11.1245 1.82166 12.4462 3.44626 12.4462C4.30864 12.4462 5.0857 12.0738 5.62496 11.4812L10.4755 14.4854C10.3423 14.8259 10.274 15.1883 10.2741 15.5538C10.2741 17.1783 11.5957 18.5 13.2203 18.5C14.845 18.5 16.1666 17.1783 16.1666 15.5539C16.1666 13.9292 14.845 12.6076 13.2203 12.6076ZM11.3484 3.44626C11.3484 2.41408 12.1882 1.57434 13.2203 1.57434C14.2525 1.57434 15.0923 2.41408 15.0923 3.44626C15.0923 4.47845 14.2525 5.31819 13.2203 5.31819C12.1882 5.31819 11.3484 4.47841 11.3484 3.44626ZM3.44626 11.3719C2.41394 11.3719 1.5742 10.5321 1.5742 9.49998C1.5742 8.46783 2.41394 7.62806 3.44626 7.62806C4.47845 7.62806 5.31805 8.46783 5.31805 9.49998C5.31805 10.5321 4.47841 11.3719 3.44626 11.3719ZM11.3484 15.5537C11.3484 14.5216 12.1882 13.6818 13.2203 13.6818C14.2525 13.6818 15.0923 14.5216 15.0923 15.5537C15.0923 16.5859 14.2525 17.4256 13.2203 17.4256C12.1882 17.4256 11.3484 16.5859 11.3484 15.5537V15.5537Z" fill="#3070B6"/>
</svg>
